<?xml version="1.0" standalone="no"?>
<!DOCTYPE svg PUBLIC "-//W3C//DTD SVG 20010904//EN"
 "http://www.w3.org/TR/2001/REC-SVG-20010904/DTD/svg10.dtd">
<svg version="1.0" xmlns="http://www.w3.org/2000/svg"
 width="2000.000000pt" height="2000.000000pt" viewBox="0 0 2000.000000 2000.000000"
 preserveAspectRatio="xMidYMid meet">

<g transform="translate(0.000000,2000.000000) scale(0.100000,-0.100000)"
fill="#ffffff" stroke="none">
<path d="M9730 19281 l0 -720 -52 -5 c-29 -3 -111 -8 -183 -11 -409 -18 -926
-89 -1380 -190 -1239 -275 -2421 -840 -3420 -1633 -479 -381 -1006 -908 -1387
-1387 -1190 -1498 -1838 -3360 -1838 -5280 0 -1805 573 -3562 1633 -5010 499
-681 1135 -1322 1811 -1825 943 -702 2054 -1210 3201 -1465 454 -101 971 -172
1380 -190 72 -3 154 -8 183 -11 l52 -5 0 -775 0 -774 475 0 475 0 0 789 0 789
73 7 c227 21 870 114 883 128 5 5 -16 315 -30 447 -30 275 -24 253 -60 247
-17 -3 -123 -22 -236 -41 -178 -31 -396 -61 -577 -80 l-53 -5 0 147 0 147 183
23 c1172 148 2297 573 3272 1240 629 430 1200 965 1676 1572 1619 2065 2035
4844 1091 7305 -313 817 -765 1566 -1356 2245 -209 240 -584 606 -841 821
-1091 911 -2441 1498 -3845 1671 l-180 22 0 177 0 178 53 -5 c1168 -120 2218
-463 3216 -1051 79 -47 146 -81 150 -75 3 5 32 47 64 93 71 102 286 471 287
491 0 4 -60 43 -132 86 -1062 637 -2308 1042 -3565 1157 l-73 7 0 734 0 734
-475 0 -475 0 0 -719z m-3 -1767 c-2 -2 -87 -9 -188 -14 -472 -26 -922 -92
-1374 -202 -115 -28 -211 -52 -213 -53 -2 -2 19 -72 46 -156 65 -203 86 -274
117 -394 14 -55 27 -105 30 -112 3 -10 15 -9 52 2 176 54 621 139 908 174 140
17 231 25 558 46 l67 4 0 -6784 0 -6785 -92 6 c-364 21 -691 59 -954 109 -70
13 -128 24 -129 22 -8 -14 -76 -508 -81 -588 l-7 -106 118 -22 c160 -30 428
-67 615 -85 131 -13 453 -36 513 -36 15 0 17 -13 17 -142 l0 -143 -157 7
c-1197 53 -2423 413 -3483 1023 -843 485 -1623 1158 -2233 1927 -1253 1579
-1841 3568 -1651 5583 141 1502 712 2920 1652 4104 363 457 816 910 1273 1273
804 638 1709 1104 2694 1387 564 162 1185 264 1750 289 l150 7 3 -169 c1 -93
1 -170 -1 -172z m1103 -764 c875 -110 1812 -439 2585 -908 493 -299 868 -594
1281 -1006 395 -395 672 -736 951 -1176 1180 -1858 1381 -4187 537 -6238 -79
-193 -273 -587 -387 -784 -964 -1676 -2607 -2867 -4494 -3258 -151 -31 -573
-100 -615 -100 -5 0 -8 3035 -8 6745 l0 6746 33 -5 c17 -3 70 -11 117 -16z"/>
<path d="M3797 14298 c-126 -178 -290 -443 -420 -679 -899 -1640 -1149 -3582
-696 -5404 245 -983 673 -1881 1284 -2695 74 -98 140 -182 145 -185 6 -4 75
56 154 132 80 76 196 176 260 223 63 47 115 88 115 91 1 4 -55 81 -124 173
-436 580 -779 1237 -1010 1931 -173 520 -273 1020 -327 1630 -16 182 -16 838
0 1020 104 1184 443 2197 1059 3162 l86 135 -111 111 c-61 62 -141 151 -179
198 -37 47 -96 116 -130 153 l-61 67 -45 -63z"/>
<path d="M4180 10030 l0 -3460 458 0 457 0 1 1367 c0 753 1 1966 2 2697 l2
1329 1053 -1659 c579 -912 1350 -2126 1712 -2696 l659 -1038 416 0 415 0 0
3460 0 3460 -457 0 -458 0 -2 -2679 -3 -2679 -744 1166 c-409 642 -1179 1848
-1710 2679 l-966 1513 -417 0 -418 0 0 -3460z"/>
<path d="M11300 13080 l0 -410 2190 0 2190 0 0 410 0 410 -2190 0 -2190 0 0
-410z"/>
<path d="M11300 10060 l0 -410 1935 0 1935 0 0 410 0 410 -1935 0 -1935 0 0
-410z"/>
<path d="M11300 6980 l0 -410 2190 0 2190 0 0 410 0 410 -2190 0 -2190 0 0
-410z"/>
<path d="M17133 14223 c-89 -82 -188 -170 -220 -197 -32 -27 -77 -66 -100 -87
l-43 -39 95 -179 c717 -1341 1023 -2876 879 -4406 -128 -1357 -611 -2661
-1394 -3759 -270 -379 -511 -666 -841 -1000 l-217 -219 43 -52 c23 -29 83
-114 133 -188 50 -74 123 -178 162 -231 l72 -96 111 103 c314 291 716 743 987
1107 717 966 1217 2056 1475 3215 427 1916 180 3930 -695 5670 -102 202 -270
505 -280 505 -3 0 -78 -66 -167 -147z"/>
</g>
</svg>
