<?xml version="1.0" encoding="UTF-8"?>
<svg xmlns="http://www.w3.org/2000/svg" id="cover" viewBox="0 0 644 570" preserveAspectRatio="xMidYMid meet">
      <defs>
        <marker id="arr" viewBox="0 0 10 10" refX="9" refY="5" markerWidth="5" markerHeight="5" orient="auto-start-reverse">
          <path d="M0,0 L10,5 L0,10 Z" fill="oklch(0.94  0.005 85)"></path>
        </marker>
      </defs>
    <path d="M30,48 L43,48" stroke="oklch(0.94  0.005 85)" stroke-width="1.4" fill="none" marker-end="url(#arr)"></path><path d="M15,33 L15,4 L183,4 L183,32" stroke="oklch(0.94  0.005 85)" stroke-width="1.4" fill="none" marker-end="url(#arr)"></path><path d="M30,84 L43,84" stroke="oklch(0.94  0.005 85)" stroke-width="1.4" fill="none" marker-end="url(#arr)"></path><path d="M92,114 L92,169" stroke="oklch(0.94  0.005 85)" stroke-width="1.4" fill="none" marker-end="url(#arr)"></path><path d="M198,48 L211,48" stroke="oklch(0.94  0.005 85)" stroke-width="1.4" fill="none" marker-end="url(#arr)"></path><path d="M183,33 L183,4 L351,4 L351,32" stroke="oklch(0.94  0.005 85)" stroke-width="1.4" fill="none" marker-end="url(#arr)"></path><path d="M198,84 L211,84" stroke="oklch(0.94  0.005 85)" stroke-width="1.4" fill="none" marker-end="url(#arr)"></path><path d="M260,114 L260,169" stroke="oklch(0.94  0.005 85)" stroke-width="1.4" fill="none" marker-end="url(#arr)"></path><path d="M366,48 L379,48" stroke="oklch(0.94  0.005 85)" stroke-width="1.4" fill="none" marker-end="url(#arr)"></path><path d="M351,33 L351,4 L519,4 L519,32" stroke="oklch(0.94  0.005 85)" stroke-width="1.4" fill="none" marker-end="url(#arr)"></path><path d="M366,84 L379,84" stroke="oklch(0.94  0.005 85)" stroke-width="1.4" fill="none" marker-end="url(#arr)"></path><path d="M428,114 L428,169" stroke="oklch(0.94  0.005 85)" stroke-width="1.4" fill="none" marker-end="url(#arr)"></path><path d="M534,48 L547,48" stroke="oklch(0.94  0.005 85)" stroke-width="1.4" fill="none" marker-end="url(#arr)"></path><path d="M534,84 L547,84" stroke="oklch(0.94  0.005 85)" stroke-width="1.4" fill="none" marker-end="url(#arr)"></path><path d="M596,114 L596,169" stroke="oklch(0.94  0.005 85)" stroke-width="1.4" fill="none" marker-end="url(#arr)"></path><path d="M30,200 L43,200" stroke="oklch(0.94  0.005 85)" stroke-width="1.4" fill="none" marker-end="url(#arr)"></path><path d="M15,185 L15,156 L183,156 L183,184" stroke="oklch(0.94  0.005 85)" stroke-width="1.4" fill="none" marker-end="url(#arr)"></path><path d="M30,236 L43,236" stroke="oklch(0.94  0.005 85)" stroke-width="1.4" fill="none" marker-end="url(#arr)"></path><path d="M92,266 L92,321" stroke="oklch(0.94  0.005 85)" stroke-width="1.4" fill="none" marker-end="url(#arr)"></path><path d="M198,200 L211,200" stroke="oklch(0.94  0.005 85)" stroke-width="1.4" fill="none" marker-end="url(#arr)"></path><path d="M183,185 L183,156 L351,156 L351,184" stroke="oklch(0.94  0.005 85)" stroke-width="1.4" fill="none" marker-end="url(#arr)"></path><path d="M198,236 L211,236" stroke="oklch(0.94  0.005 85)" stroke-width="1.4" fill="none" marker-end="url(#arr)"></path><path d="M260,266 L260,321" stroke="oklch(0.94  0.005 85)" stroke-width="1.4" fill="none" marker-end="url(#arr)"></path><path d="M366,200 L379,200" stroke="oklch(0.94  0.005 85)" stroke-width="1.4" fill="none" marker-end="url(#arr)"></path><path d="M351,185 L351,156 L519,156 L519,184" stroke="oklch(0.94  0.005 85)" stroke-width="1.4" fill="none" marker-end="url(#arr)"></path><path d="M366,236 L379,236" stroke="oklch(0.94  0.005 85)" stroke-width="1.4" fill="none" marker-end="url(#arr)"></path><path d="M428,266 L428,321" stroke="oklch(0.94  0.005 85)" stroke-width="1.4" fill="none" marker-end="url(#arr)"></path><path d="M534,200 L547,200" stroke="oklch(0.94  0.005 85)" stroke-width="1.4" fill="none" marker-end="url(#arr)"></path><path d="M534,236 L547,236" stroke="oklch(0.94  0.005 85)" stroke-width="1.4" fill="none" marker-end="url(#arr)"></path><path d="M596,266 L596,321" stroke="oklch(0.94  0.005 85)" stroke-width="1.4" fill="none" marker-end="url(#arr)"></path><path d="M30,352 L43,352" stroke="oklch(0.94  0.005 85)" stroke-width="1.4" fill="none" marker-end="url(#arr)"></path><path d="M15,337 L15,308 L183,308 L183,336" stroke="oklch(0.94  0.005 85)" stroke-width="1.4" fill="none" marker-end="url(#arr)"></path><path d="M30,388 L43,388" stroke="oklch(0.94  0.005 85)" stroke-width="1.4" fill="none" marker-end="url(#arr)"></path><path d="M92,418 L92,473" stroke="oklch(0.94  0.005 85)" stroke-width="1.4" fill="none" marker-end="url(#arr)"></path><path d="M198,352 L211,352" stroke="oklch(0.94  0.005 85)" stroke-width="1.4" fill="none" marker-end="url(#arr)"></path><path d="M183,337 L183,308 L351,308 L351,336" stroke="oklch(0.94  0.005 85)" stroke-width="1.4" fill="none" marker-end="url(#arr)"></path><path d="M198,388 L211,388" stroke="oklch(0.94  0.005 85)" stroke-width="1.4" fill="none" marker-end="url(#arr)"></path><path d="M260,418 L260,473" stroke="oklch(0.94  0.005 85)" stroke-width="1.4" fill="none" marker-end="url(#arr)"></path><path d="M366,352 L379,352" stroke="oklch(0.94  0.005 85)" stroke-width="1.4" fill="none" marker-end="url(#arr)"></path><path d="M351,337 L351,308 L519,308 L519,336" stroke="oklch(0.94  0.005 85)" stroke-width="1.4" fill="none" marker-end="url(#arr)"></path><path d="M366,388 L379,388" stroke="oklch(0.94  0.005 85)" stroke-width="1.4" fill="none" marker-end="url(#arr)"></path><path d="M428,418 L428,473" stroke="oklch(0.94  0.005 85)" stroke-width="1.4" fill="none" marker-end="url(#arr)"></path><path d="M534,352 L547,352" stroke="oklch(0.94  0.005 85)" stroke-width="1.4" fill="none" marker-end="url(#arr)"></path><path d="M534,388 L547,388" stroke="oklch(0.94  0.005 85)" stroke-width="1.4" fill="none" marker-end="url(#arr)"></path><path d="M596,418 L596,473" stroke="oklch(0.94  0.005 85)" stroke-width="1.4" fill="none" marker-end="url(#arr)"></path><path d="M30,504 L43,504" stroke="oklch(0.94  0.005 85)" stroke-width="1.4" fill="none" marker-end="url(#arr)"></path><path d="M15,489 L15,460 L183,460 L183,488" stroke="oklch(0.94  0.005 85)" stroke-width="1.4" fill="none" marker-end="url(#arr)"></path><path d="M30,540 L43,540" stroke="oklch(0.94  0.005 85)" stroke-width="1.4" fill="none" marker-end="url(#arr)"></path><path d="M198,504 L211,504" stroke="oklch(0.94  0.005 85)" stroke-width="1.4" fill="none" marker-end="url(#arr)"></path><path d="M183,489 L183,460 L351,460 L351,488" stroke="oklch(0.94  0.005 85)" stroke-width="1.4" fill="none" marker-end="url(#arr)"></path><path d="M198,540 L211,540" stroke="oklch(0.94  0.005 85)" stroke-width="1.4" fill="none" marker-end="url(#arr)"></path><path d="M366,504 L379,504" stroke="oklch(0.94  0.005 85)" stroke-width="1.4" fill="none" marker-end="url(#arr)"></path><path d="M351,489 L351,460 L519,460 L519,488" stroke="oklch(0.94  0.005 85)" stroke-width="1.4" fill="none" marker-end="url(#arr)"></path><path d="M366,540 L379,540" stroke="oklch(0.94  0.005 85)" stroke-width="1.4" fill="none" marker-end="url(#arr)"></path><path d="M534,504 L547,504" stroke="oklch(0.94  0.005 85)" stroke-width="1.4" fill="none" marker-end="url(#arr)"></path><path d="M534,540 L547,540" stroke="oklch(0.94  0.005 85)" stroke-width="1.4" fill="none" marker-end="url(#arr)"></path><rect x="0" y="33" width="30" height="30" rx="4" ry="4" fill="oklch(0.70  0.15 250)" stroke="oklch(1 0 0 / 0.25)" stroke-width="0.8"></rect><text x="15" y="49" text-anchor="middle" dominant-baseline="central" font-family="IBM Plex Mono, monospace" font-weight="600" font-size="14" fill="oklch(0.99 0 0)">1</text><rect x="0" y="69" width="30" height="30" rx="4" ry="4" fill="oklch(0.30 0.06 250)" stroke="oklch(0.70  0.15 250)" stroke-width="1"></rect><text x="15" y="85" text-anchor="middle" dominant-baseline="central" font-family="IBM Plex Mono, monospace" font-weight="600" font-size="14" fill="oklch(0.94  0.005 85)">1</text><rect x="168" y="33" width="30" height="30" rx="4" ry="4" fill="oklch(0.70  0.15 250)" stroke="oklch(1 0 0 / 0.25)" stroke-width="0.8"></rect><text x="183" y="49" text-anchor="middle" dominant-baseline="central" font-family="IBM Plex Mono, monospace" font-weight="600" font-size="14" fill="oklch(0.99 0 0)">1</text><rect x="168" y="69" width="30" height="30" rx="4" ry="4" fill="oklch(0.30 0.06 250)" stroke="oklch(0.70  0.15 250)" stroke-width="1"></rect><text x="183" y="85" text-anchor="middle" dominant-baseline="central" font-family="IBM Plex Mono, monospace" font-weight="600" font-size="14" fill="oklch(0.94  0.005 85)">7</text><rect x="336" y="33" width="30" height="30" rx="4" ry="4" fill="oklch(0.70  0.15 250)" stroke="oklch(1 0 0 / 0.25)" stroke-width="0.8"></rect><text x="351" y="49" text-anchor="middle" dominant-baseline="central" font-family="IBM Plex Mono, monospace" font-weight="600" font-size="14" fill="oklch(0.99 0 0)">1</text><rect x="336" y="69" width="30" height="30" rx="4" ry="4" fill="oklch(0.30 0.06 250)" stroke="oklch(0.70  0.15 250)" stroke-width="1"></rect><text x="351" y="85" text-anchor="middle" dominant-baseline="central" font-family="IBM Plex Mono, monospace" font-weight="600" font-size="14" fill="oklch(0.94  0.005 85)">5</text><rect x="504" y="33" width="30" height="30" rx="4" ry="4" fill="oklch(0.70  0.15 250)" stroke="oklch(1 0 0 / 0.25)" stroke-width="0.8"></rect><text x="519" y="49" text-anchor="middle" dominant-baseline="central" font-family="IBM Plex Mono, monospace" font-weight="600" font-size="14" fill="oklch(0.99 0 0)">1</text><rect x="504" y="69" width="30" height="30" rx="4" ry="4" fill="oklch(0.30 0.06 250)" stroke="oklch(0.70  0.15 250)" stroke-width="1"></rect><text x="519" y="85" text-anchor="middle" dominant-baseline="central" font-family="IBM Plex Mono, monospace" font-weight="600" font-size="14" fill="oklch(0.94  0.005 85)">9</text><rect x="0" y="185" width="30" height="30" rx="4" ry="4" fill="oklch(0.72  0.15 145)" stroke="oklch(1 0 0 / 0.25)" stroke-width="0.8"></rect><text x="15" y="201" text-anchor="middle" dominant-baseline="central" font-family="IBM Plex Mono, monospace" font-weight="600" font-size="14" fill="oklch(0.99 0 0)">4</text><rect x="0" y="221" width="30" height="30" rx="4" ry="4" fill="oklch(0.30 0.06 145)" stroke="oklch(0.72  0.15 145)" stroke-width="1"></rect><text x="15" y="237" text-anchor="middle" dominant-baseline="central" font-family="IBM Plex Mono, monospace" font-weight="600" font-size="14" fill="oklch(0.94  0.005 85)">4</text><rect x="168" y="185" width="30" height="30" rx="4" ry="4" fill="oklch(0.72  0.15 145)" stroke="oklch(1 0 0 / 0.25)" stroke-width="0.8"></rect><text x="183" y="201" text-anchor="middle" dominant-baseline="central" font-family="IBM Plex Mono, monospace" font-weight="600" font-size="14" fill="oklch(0.99 0 0)">4</text><rect x="168" y="221" width="30" height="30" rx="4" ry="4" fill="oklch(0.30 0.06 145)" stroke="oklch(0.72  0.15 145)" stroke-width="1"></rect><text x="183" y="237" text-anchor="middle" dominant-baseline="central" font-family="IBM Plex Mono, monospace" font-weight="600" font-size="14" fill="oklch(0.94  0.005 85)">6</text><rect x="336" y="185" width="30" height="30" rx="4" ry="4" fill="oklch(0.72  0.15 145)" stroke="oklch(1 0 0 / 0.25)" stroke-width="0.8"></rect><text x="351" y="201" text-anchor="middle" dominant-baseline="central" font-family="IBM Plex Mono, monospace" font-weight="600" font-size="14" fill="oklch(0.99 0 0)">4</text><rect x="336" y="221" width="30" height="30" rx="4" ry="4" fill="oklch(0.30 0.06 145)" stroke="oklch(0.72  0.15 145)" stroke-width="1"></rect><text x="351" y="237" text-anchor="middle" dominant-baseline="central" font-family="IBM Plex Mono, monospace" font-weight="600" font-size="14" fill="oklch(0.94  0.005 85)">3</text><rect x="504" y="185" width="30" height="30" rx="4" ry="4" fill="oklch(0.72  0.15 145)" stroke="oklch(1 0 0 / 0.25)" stroke-width="0.8"></rect><text x="519" y="201" text-anchor="middle" dominant-baseline="central" font-family="IBM Plex Mono, monospace" font-weight="600" font-size="14" fill="oklch(0.99 0 0)">4</text><rect x="504" y="221" width="30" height="30" rx="4" ry="4" fill="oklch(0.30 0.06 145)" stroke="oklch(0.72  0.15 145)" stroke-width="1"></rect><text x="519" y="237" text-anchor="middle" dominant-baseline="central" font-family="IBM Plex Mono, monospace" font-weight="600" font-size="14" fill="oklch(0.94  0.005 85)">5</text><rect x="0" y="337" width="30" height="30" rx="4" ry="4" fill="oklch(0.76  0.15  75)" stroke="oklch(1 0 0 / 0.25)" stroke-width="0.8"></rect><text x="15" y="353" text-anchor="middle" dominant-baseline="central" font-family="IBM Plex Mono, monospace" font-weight="600" font-size="14" fill="oklch(0.99 0 0)">6</text><rect x="0" y="373" width="30" height="30" rx="4" ry="4" fill="oklch(0.32 0.06  75)" stroke="oklch(0.76  0.15  75)" stroke-width="1"></rect><text x="15" y="389" text-anchor="middle" dominant-baseline="central" font-family="IBM Plex Mono, monospace" font-weight="600" font-size="14" fill="oklch(0.94  0.005 85)">7</text><rect x="168" y="337" width="30" height="30" rx="4" ry="4" fill="oklch(0.76  0.15  75)" stroke="oklch(1 0 0 / 0.25)" stroke-width="0.8"></rect><text x="183" y="353" text-anchor="middle" dominant-baseline="central" font-family="IBM Plex Mono, monospace" font-weight="600" font-size="14" fill="oklch(0.99 0 0)">6</text><rect x="168" y="373" width="30" height="30" rx="4" ry="4" fill="oklch(0.32 0.06  75)" stroke="oklch(0.76  0.15  75)" stroke-width="1"></rect><text x="183" y="389" text-anchor="middle" dominant-baseline="central" font-family="IBM Plex Mono, monospace" font-weight="600" font-size="14" fill="oklch(0.94  0.005 85)">2</text><rect x="336" y="337" width="30" height="30" rx="4" ry="4" fill="oklch(0.76  0.15  75)" stroke="oklch(1 0 0 / 0.25)" stroke-width="0.8"></rect><text x="351" y="353" text-anchor="middle" dominant-baseline="central" font-family="IBM Plex Mono, monospace" font-weight="600" font-size="14" fill="oklch(0.99 0 0)">6</text><rect x="336" y="373" width="30" height="30" rx="4" ry="4" fill="oklch(0.32 0.06  75)" stroke="oklch(0.76  0.15  75)" stroke-width="1"></rect><text x="351" y="389" text-anchor="middle" dominant-baseline="central" font-family="IBM Plex Mono, monospace" font-weight="600" font-size="14" fill="oklch(0.94  0.005 85)">6</text><rect x="504" y="337" width="30" height="30" rx="4" ry="4" fill="oklch(0.76  0.15  75)" stroke="oklch(1 0 0 / 0.25)" stroke-width="0.8"></rect><text x="519" y="353" text-anchor="middle" dominant-baseline="central" font-family="IBM Plex Mono, monospace" font-weight="600" font-size="14" fill="oklch(0.99 0 0)">6</text><rect x="504" y="373" width="30" height="30" rx="4" ry="4" fill="oklch(0.32 0.06  75)" stroke="oklch(0.76  0.15  75)" stroke-width="1"></rect><text x="519" y="389" text-anchor="middle" dominant-baseline="central" font-family="IBM Plex Mono, monospace" font-weight="600" font-size="14" fill="oklch(0.94  0.005 85)">4</text><rect x="0" y="489" width="30" height="30" rx="4" ry="4" fill="oklch(0.68  0.16  25)" stroke="oklch(1 0 0 / 0.25)" stroke-width="0.8"></rect><text x="15" y="505" text-anchor="middle" dominant-baseline="central" font-family="IBM Plex Mono, monospace" font-weight="600" font-size="14" fill="oklch(0.99 0 0)">9</text><rect x="0" y="525" width="30" height="30" rx="4" ry="4" fill="oklch(0.30 0.07  25)" stroke="oklch(0.68  0.16  25)" stroke-width="1"></rect><text x="15" y="541" text-anchor="middle" dominant-baseline="central" font-family="IBM Plex Mono, monospace" font-weight="600" font-size="14" fill="oklch(0.94  0.005 85)">3</text><rect x="168" y="489" width="30" height="30" rx="4" ry="4" fill="oklch(0.68  0.16  25)" stroke="oklch(1 0 0 / 0.25)" stroke-width="0.8"></rect><text x="183" y="505" text-anchor="middle" dominant-baseline="central" font-family="IBM Plex Mono, monospace" font-weight="600" font-size="14" fill="oklch(0.99 0 0)">9</text><rect x="168" y="525" width="30" height="30" rx="4" ry="4" fill="oklch(0.30 0.07  25)" stroke="oklch(0.68  0.16  25)" stroke-width="1"></rect><text x="183" y="541" text-anchor="middle" dominant-baseline="central" font-family="IBM Plex Mono, monospace" font-weight="600" font-size="14" fill="oklch(0.94  0.005 85)">1</text><rect x="336" y="489" width="30" height="30" rx="4" ry="4" fill="oklch(0.68  0.16  25)" stroke="oklch(1 0 0 / 0.25)" stroke-width="0.8"></rect><text x="351" y="505" text-anchor="middle" dominant-baseline="central" font-family="IBM Plex Mono, monospace" font-weight="600" font-size="14" fill="oklch(0.99 0 0)">9</text><rect x="336" y="525" width="30" height="30" rx="4" ry="4" fill="oklch(0.30 0.07  25)" stroke="oklch(0.68  0.16  25)" stroke-width="1"></rect><text x="351" y="541" text-anchor="middle" dominant-baseline="central" font-family="IBM Plex Mono, monospace" font-weight="600" font-size="14" fill="oklch(0.94  0.005 85)">7</text><rect x="504" y="489" width="30" height="30" rx="4" ry="4" fill="oklch(0.68  0.16  25)" stroke="oklch(1 0 0 / 0.25)" stroke-width="0.8"></rect><text x="519" y="505" text-anchor="middle" dominant-baseline="central" font-family="IBM Plex Mono, monospace" font-weight="600" font-size="14" fill="oklch(0.99 0 0)">9</text><rect x="504" y="525" width="30" height="30" rx="4" ry="4" fill="oklch(0.30 0.07  25)" stroke="oklch(0.68  0.16  25)" stroke-width="1"></rect><text x="519" y="541" text-anchor="middle" dominant-baseline="central" font-family="IBM Plex Mono, monospace" font-weight="600" font-size="14" fill="oklch(0.94  0.005 85)">9</text><rect x="45.5" y="20" width="96" height="96" rx="6" ry="6" fill="oklch(0 0 0 / 0.35)"></rect><rect x="44" y="18" width="96" height="96" rx="6" ry="6" fill="oklch(0.24 0.012 245)" stroke="oklch(0.94  0.005 85)" stroke-width="1.4"></rect><text x="92" y="67" text-anchor="middle" dominant-baseline="central" font-family="IBM Plex Sans, sans-serif" font-weight="600" font-size="19" letter-spacing="0.04em" fill="oklch(0.94  0.005 85)">MAC</text><rect x="213.5" y="20" width="96" height="96" rx="6" ry="6" fill="oklch(0 0 0 / 0.35)"></rect><rect x="212" y="18" width="96" height="96" rx="6" ry="6" fill="oklch(0.24 0.012 245)" stroke="oklch(0.94  0.005 85)" stroke-width="1.4"></rect><text x="260" y="67" text-anchor="middle" dominant-baseline="central" font-family="IBM Plex Sans, sans-serif" font-weight="600" font-size="19" letter-spacing="0.04em" fill="oklch(0.94  0.005 85)">MAC</text><rect x="381.5" y="20" width="96" height="96" rx="6" ry="6" fill="oklch(0 0 0 / 0.35)"></rect><rect x="380" y="18" width="96" height="96" rx="6" ry="6" fill="oklch(0.24 0.012 245)" stroke="oklch(0.94  0.005 85)" stroke-width="1.4"></rect><text x="428" y="67" text-anchor="middle" dominant-baseline="central" font-family="IBM Plex Sans, sans-serif" font-weight="600" font-size="19" letter-spacing="0.04em" fill="oklch(0.94  0.005 85)">MAC</text><rect x="549.5" y="20" width="96" height="96" rx="6" ry="6" fill="oklch(0 0 0 / 0.35)"></rect><rect x="548" y="18" width="96" height="96" rx="6" ry="6" fill="oklch(0.24 0.012 245)" stroke="oklch(0.94  0.005 85)" stroke-width="1.4"></rect><text x="596" y="67" text-anchor="middle" dominant-baseline="central" font-family="IBM Plex Sans, sans-serif" font-weight="600" font-size="19" letter-spacing="0.04em" fill="oklch(0.94  0.005 85)">MAC</text><rect x="45.5" y="172" width="96" height="96" rx="6" ry="6" fill="oklch(0 0 0 / 0.35)"></rect><rect x="44" y="170" width="96" height="96" rx="6" ry="6" fill="oklch(0.24 0.012 245)" stroke="oklch(0.94  0.005 85)" stroke-width="1.4"></rect><text x="92" y="219" text-anchor="middle" dominant-baseline="central" font-family="IBM Plex Sans, sans-serif" font-weight="600" font-size="19" letter-spacing="0.04em" fill="oklch(0.94  0.005 85)">MAC</text><rect x="213.5" y="172" width="96" height="96" rx="6" ry="6" fill="oklch(0 0 0 / 0.35)"></rect><rect x="212" y="170" width="96" height="96" rx="6" ry="6" fill="oklch(0.24 0.012 245)" stroke="oklch(0.94  0.005 85)" stroke-width="1.4"></rect><text x="260" y="219" text-anchor="middle" dominant-baseline="central" font-family="IBM Plex Sans, sans-serif" font-weight="600" font-size="19" letter-spacing="0.04em" fill="oklch(0.94  0.005 85)">MAC</text><rect x="381.5" y="172" width="96" height="96" rx="6" ry="6" fill="oklch(0 0 0 / 0.35)"></rect><rect x="380" y="170" width="96" height="96" rx="6" ry="6" fill="oklch(0.24 0.012 245)" stroke="oklch(0.94  0.005 85)" stroke-width="1.4"></rect><text x="428" y="219" text-anchor="middle" dominant-baseline="central" font-family="IBM Plex Sans, sans-serif" font-weight="600" font-size="19" letter-spacing="0.04em" fill="oklch(0.94  0.005 85)">MAC</text><rect x="549.5" y="172" width="96" height="96" rx="6" ry="6" fill="oklch(0 0 0 / 0.35)"></rect><rect x="548" y="170" width="96" height="96" rx="6" ry="6" fill="oklch(0.24 0.012 245)" stroke="oklch(0.94  0.005 85)" stroke-width="1.4"></rect><text x="596" y="219" text-anchor="middle" dominant-baseline="central" font-family="IBM Plex Sans, sans-serif" font-weight="600" font-size="19" letter-spacing="0.04em" fill="oklch(0.94  0.005 85)">MAC</text><rect x="45.5" y="324" width="96" height="96" rx="6" ry="6" fill="oklch(0 0 0 / 0.35)"></rect><rect x="44" y="322" width="96" height="96" rx="6" ry="6" fill="oklch(0.24 0.012 245)" stroke="oklch(0.94  0.005 85)" stroke-width="1.4"></rect><text x="92" y="371" text-anchor="middle" dominant-baseline="central" font-family="IBM Plex Sans, sans-serif" font-weight="600" font-size="19" letter-spacing="0.04em" fill="oklch(0.94  0.005 85)">MAC</text><rect x="213.5" y="324" width="96" height="96" rx="6" ry="6" fill="oklch(0 0 0 / 0.35)"></rect><rect x="212" y="322" width="96" height="96" rx="6" ry="6" fill="oklch(0.24 0.012 245)" stroke="oklch(0.94  0.005 85)" stroke-width="1.4"></rect><text x="260" y="371" text-anchor="middle" dominant-baseline="central" font-family="IBM Plex Sans, sans-serif" font-weight="600" font-size="19" letter-spacing="0.04em" fill="oklch(0.94  0.005 85)">MAC</text><rect x="381.5" y="324" width="96" height="96" rx="6" ry="6" fill="oklch(0 0 0 / 0.35)"></rect><rect x="380" y="322" width="96" height="96" rx="6" ry="6" fill="oklch(0.24 0.012 245)" stroke="oklch(0.94  0.005 85)" stroke-width="1.4"></rect><text x="428" y="371" text-anchor="middle" dominant-baseline="central" font-family="IBM Plex Sans, sans-serif" font-weight="600" font-size="19" letter-spacing="0.04em" fill="oklch(0.94  0.005 85)">MAC</text><rect x="549.5" y="324" width="96" height="96" rx="6" ry="6" fill="oklch(0 0 0 / 0.35)"></rect><rect x="548" y="322" width="96" height="96" rx="6" ry="6" fill="oklch(0.24 0.012 245)" stroke="oklch(0.94  0.005 85)" stroke-width="1.4"></rect><text x="596" y="371" text-anchor="middle" dominant-baseline="central" font-family="IBM Plex Sans, sans-serif" font-weight="600" font-size="19" letter-spacing="0.04em" fill="oklch(0.94  0.005 85)">MAC</text><rect x="45.5" y="476" width="96" height="96" rx="6" ry="6" fill="oklch(0 0 0 / 0.35)"></rect><rect x="44" y="474" width="96" height="96" rx="6" ry="6" fill="oklch(0.24 0.012 245)" stroke="oklch(0.94  0.005 85)" stroke-width="1.4"></rect><text x="92" y="523" text-anchor="middle" dominant-baseline="central" font-family="IBM Plex Sans, sans-serif" font-weight="600" font-size="19" letter-spacing="0.04em" fill="oklch(0.94  0.005 85)">MAC</text><rect x="213.5" y="476" width="96" height="96" rx="6" ry="6" fill="oklch(0 0 0 / 0.35)"></rect><rect x="212" y="474" width="96" height="96" rx="6" ry="6" fill="oklch(0.24 0.012 245)" stroke="oklch(0.94  0.005 85)" stroke-width="1.4"></rect><text x="260" y="523" text-anchor="middle" dominant-baseline="central" font-family="IBM Plex Sans, sans-serif" font-weight="600" font-size="19" letter-spacing="0.04em" fill="oklch(0.94  0.005 85)">MAC</text><rect x="381.5" y="476" width="96" height="96" rx="6" ry="6" fill="oklch(0 0 0 / 0.35)"></rect><rect x="380" y="474" width="96" height="96" rx="6" ry="6" fill="oklch(0.24 0.012 245)" stroke="oklch(0.94  0.005 85)" stroke-width="1.4"></rect><text x="428" y="523" text-anchor="middle" dominant-baseline="central" font-family="IBM Plex Sans, sans-serif" font-weight="600" font-size="19" letter-spacing="0.04em" fill="oklch(0.94  0.005 85)">MAC</text><rect x="549.5" y="476" width="96" height="96" rx="6" ry="6" fill="oklch(0 0 0 / 0.35)"></rect><rect x="548" y="474" width="96" height="96" rx="6" ry="6" fill="oklch(0.24 0.012 245)" stroke="oklch(0.94  0.005 85)" stroke-width="1.4"></rect><text x="596" y="523" text-anchor="middle" dominant-baseline="central" font-family="IBM Plex Sans, sans-serif" font-weight="600" font-size="19" letter-spacing="0.04em" fill="oklch(0.94  0.005 85)">MAC</text></svg>